<svg xmlns="http://www.w3.org/2000/svg" width="40" height="40" viewBox="0 0 40 40"><defs><clipPath id="c50sa"><path fill="#fff" d="M13 12a1 1 0 0 1 1-1h12a1 1 0 0 1 1 1v18l-7-5.5-7 5.5z"/></clipPath></defs><g><g><g><path fill="#fff" d="M0 8a8 8 0 0 1 8-8h24a8 8 0 0 1 8 8v24a8 8 0 0 1-8 8H8a8 8 0 0 1-8-8z"/></g><g><g><path fill="none" stroke="#1a1b22" stroke-miterlimit="20" stroke-width="4" d="M13 12a1 1 0 0 1 1-1h12a1 1 0 0 1 1 1v18l-7-5.5v0L13 30v0z" clip-path="url(&quot;#c50sa&quot;)"/></g></g></g></g></svg>